<svg xmlns="http://www.w3.org/2000/svg" viewBox="0 0 200 200" fill="none">
  <rect width="200" height="200" fill="white"/>
  <!-- Top-left finder pattern -->
  <rect x="10" y="10" width="56" height="56" rx="4" fill="#1c1c1c"/>
  <rect x="18" y="18" width="40" height="40" rx="2" fill="white"/>
  <rect x="26" y="26" width="24" height="24" rx="1" fill="#1c1c1c"/>
  <!-- Top-right finder pattern -->
  <rect x="134" y="10" width="56" height="56" rx="4" fill="#1c1c1c"/>
  <rect x="142" y="18" width="40" height="40" rx="2" fill="white"/>
  <rect x="150" y="26" width="24" height="24" rx="1" fill="#1c1c1c"/>
  <!-- Bottom-left finder pattern -->
  <rect x="10" y="134" width="56" height="56" rx="4" fill="#1c1c1c"/>
  <rect x="18" y="142" width="40" height="40" rx="2" fill="white"/>
  <rect x="26" y="150" width="24" height="24" rx="1" fill="#1c1c1c"/>
  <!-- Data modules (simulated random pattern) -->
  <rect x="76" y="10" width="8" height="8" fill="#1c1c1c"/>
  <rect x="92" y="10" width="8" height="8" fill="#1c1c1c"/>
  <rect x="108" y="10" width="8" height="8" fill="#1c1c1c"/>
  <rect x="84" y="26" width="8" height="8" fill="#1c1c1c"/>
  <rect x="100" y="18" width="8" height="8" fill="#1c1c1c"/>
  <rect x="116" y="26" width="8" height="8" fill="#1c1c1c"/>
  <rect x="76" y="34" width="8" height="8" fill="#1c1c1c"/>
  <rect x="108" y="42" width="8" height="8" fill="#1c1c1c"/>
  <rect x="84" y="50" width="8" height="8" fill="#1c1c1c"/>
  <rect x="116" y="58" width="8" height="8" fill="#1c1c1c"/>
  <rect x="76" y="58" width="8" height="8" fill="#1c1c1c"/>
  <rect x="100" y="50" width="8" height="8" fill="#1c1c1c"/>
  <!-- Middle rows -->
  <rect x="10" y="76" width="8" height="8" fill="#1c1c1c"/>
  <rect x="26" y="84" width="8" height="8" fill="#1c1c1c"/>
  <rect x="42" y="76" width="8" height="8" fill="#1c1c1c"/>
  <rect x="58" y="84" width="8" height="8" fill="#1c1c1c"/>
  <rect x="76" y="76" width="8" height="8" fill="#1c1c1c"/>
  <rect x="92" y="84" width="8" height="8" fill="#1c1c1c"/>
  <rect x="108" y="76" width="8" height="8" fill="#1c1c1c"/>
  <rect x="124" y="84" width="8" height="8" fill="#1c1c1c"/>
  <rect x="140" y="76" width="8" height="8" fill="#1c1c1c"/>
  <rect x="156" y="84" width="8" height="8" fill="#1c1c1c"/>
  <rect x="172" y="76" width="8" height="8" fill="#1c1c1c"/>
  <rect x="18" y="92" width="8" height="8" fill="#1c1c1c"/>
  <rect x="50" y="100" width="8" height="8" fill="#1c1c1c"/>
  <rect x="84" y="92" width="8" height="8" fill="#1c1c1c"/>
  <rect x="116" y="100" width="8" height="8" fill="#1c1c1c"/>
  <rect x="148" y="92" width="8" height="8" fill="#1c1c1c"/>
  <rect x="180" y="100" width="8" height="8" fill="#1c1c1c"/>
  <rect x="34" y="108" width="8" height="8" fill="#1c1c1c"/>
  <rect x="66" y="116" width="8" height="8" fill="#1c1c1c"/>
  <rect x="100" y="108" width="8" height="8" fill="#1c1c1c"/>
  <rect x="132" y="116" width="8" height="8" fill="#1c1c1c"/>
  <rect x="164" y="108" width="8" height="8" fill="#1c1c1c"/>
  <!-- Bottom rows -->
  <rect x="76" y="134" width="8" height="8" fill="#1c1c1c"/>
  <rect x="92" y="142" width="8" height="8" fill="#1c1c1c"/>
  <rect x="108" y="134" width="8" height="8" fill="#1c1c1c"/>
  <rect x="124" y="142" width="8" height="8" fill="#1c1c1c"/>
  <rect x="140" y="134" width="8" height="8" fill="#1c1c1c"/>
  <rect x="156" y="142" width="8" height="8" fill="#1c1c1c"/>
  <rect x="172" y="134" width="8" height="8" fill="#1c1c1c"/>
  <rect x="84" y="150" width="8" height="8" fill="#1c1c1c"/>
  <rect x="100" y="158" width="8" height="8" fill="#1c1c1c"/>
  <rect x="116" y="150" width="8" height="8" fill="#1c1c1c"/>
  <rect x="148" y="158" width="8" height="8" fill="#1c1c1c"/>
  <rect x="164" y="150" width="8" height="8" fill="#1c1c1c"/>
  <rect x="180" y="158" width="8" height="8" fill="#1c1c1c"/>
  <rect x="76" y="166" width="8" height="8" fill="#1c1c1c"/>
  <rect x="108" y="166" width="8" height="8" fill="#1c1c1c"/>
  <rect x="132" y="174" width="8" height="8" fill="#1c1c1c"/>
  <rect x="156" y="166" width="8" height="8" fill="#1c1c1c"/>
  <rect x="172" y="174" width="8" height="8" fill="#1c1c1c"/>
  <!-- TODO: Replace with real QRIS from your bank/payment provider -->
</svg>
